<?xml version="1.0"?>
<!-- Generated by SVGo -->
<svg width="840" height="600"
     xmlns="http://www.w3.org/2000/svg"
     xmlns:xlink="http://www.w3.org/1999/xlink">
<text x="420" y="45" style="font-size:30pt;fill:Red;text-anchor:middle" >六月</text>
<text x="60" y="105" style="font-size:30pt;fill:Red;text-anchor:middle" >日</text>
<text x="180" y="105" style="font-size:30pt;fill:Red;text-anchor:middle" >一</text>
<text x="300" y="105" style="font-size:30pt;fill:Red;text-anchor:middle" >二</text>
<text x="420" y="105" style="font-size:30pt;fill:Red;text-anchor:middle" >三</text>
<text x="540" y="105" style="font-size:30pt;fill:Red;text-anchor:middle" >四</text>
<text x="660" y="105" style="font-size:30pt;fill:Red;text-anchor:middle" >五</text>
<text x="780" y="105" style="font-size:30pt;fill:Red;text-anchor:middle" >六</text>
<text x="900" y="105" style="font-size:30pt;fill:Red;text-anchor:middle" >七</text>
<text x="60" y="165" style="font-size:20pt;fill:black;text-anchor:middle" >1</text>
<text x="60" y="225" style="font-size:20pt;fill:black;text-anchor:middle" >初一</text>
<text x="180" y="165" style="font-size:20pt;fill:black;text-anchor:middle" >2</text>
<text x="180" y="225" style="font-size:20pt;fill:black;text-anchor:middle" >初二</text>
<text x="300" y="165" style="font-size:20pt;fill:black;text-anchor:middle" >3</text>
<text x="300" y="225" style="font-size:20pt;fill:black;text-anchor:middle" >初三</text>
<text x="420" y="165" style="font-size:20pt;fill:black;text-anchor:middle" >4</text>
<text x="420" y="225" style="font-size:20pt;fill:black;text-anchor:middle" >初四</text>
<text x="540" y="165" style="font-size:20pt;fill:black;text-anchor:middle" >5</text>
<text x="540" y="225" style="font-size:20pt;fill:black;text-anchor:middle" >初五</text>
<text x="660" y="165" style="font-size:20pt;fill:black;text-anchor:middle" >6</text>
<text x="660" y="225" style="font-size:20pt;fill:black;text-anchor:middle" >初六</text>
<text x="780" y="165" style="font-size:20pt;fill:black;text-anchor:middle" >7</text>
<text x="780" y="225" style="font-size:20pt;fill:black;text-anchor:middle" >初七</text>
<g style="stroke:black">
<line x1="0" y1="0" x2="0" y2="600" />
<line x1="60" y1="0" x2="60" y2="600" />
<line x1="120" y1="0" x2="120" y2="600" />
<line x1="180" y1="0" x2="180" y2="600" />
<line x1="240" y1="0" x2="240" y2="600" />
<line x1="300" y1="0" x2="300" y2="600" />
<line x1="360" y1="0" x2="360" y2="600" />
<line x1="420" y1="0" x2="420" y2="600" />
<line x1="480" y1="0" x2="480" y2="600" />
<line x1="540" y1="0" x2="540" y2="600" />
<line x1="600" y1="0" x2="600" y2="600" />
<line x1="660" y1="0" x2="660" y2="600" />
<line x1="720" y1="0" x2="720" y2="600" />
<line x1="780" y1="0" x2="780" y2="600" />
<line x1="840" y1="0" x2="840" y2="600" />
<line x1="0" y1="0" x2="840" y2="0" />
<line x1="0" y1="60" x2="840" y2="60" />
<line x1="0" y1="120" x2="840" y2="120" />
<line x1="0" y1="180" x2="840" y2="180" />
<line x1="0" y1="240" x2="840" y2="240" />
<line x1="0" y1="300" x2="840" y2="300" />
<line x1="0" y1="360" x2="840" y2="360" />
<line x1="0" y1="420" x2="840" y2="420" />
<line x1="0" y1="480" x2="840" y2="480" />
<line x1="0" y1="540" x2="840" y2="540" />
<line x1="0" y1="600" x2="840" y2="600" />
</g>
</svg>
